HIERARCHY
ROOT Hips
{
	OFFSET 0.000000 0.000000 0.000000
	CHANNELS 6 Xposition Yposition Zposition Xrotation Yrotation Zrotation
	JOINT LeftUpLeg_virtual
	{
		OFFSET 0.000000 0.000000 0.000000
		CHANNELS 3 Xrotation Yrotation Zrotation
		JOINT LeftUpLeg
		{
			OFFSET 11.394100 -6.187798 -0.413800
			CHANNELS 3 Xrotation Yrotation Zrotation
			JOINT LeftLeg
			{
				OFFSET 0.430247 -32.302673 3.732800
				CHANNELS 3 Xrotation Yrotation Zrotation
				JOINT LeftFoot
				{
					OFFSET -0.430247 -48.264931 -6.423300
					CHANNELS 3 Xrotation Yrotation Zrotation
					JOINT LeftToeBase
					{
						OFFSET 4.230900 -16.068199 23.438400
						CHANNELS 3 Xrotation Yrotation Zrotation
						JOINT LeftToe_End
						{
							OFFSET 4.510700 0.695400 19.974600
							CHANNELS 3 Xrotation Yrotation Zrotation
							End Site
							{
								OFFSET 0 0 0
							}
						}
					}
				}
			}
		}
	}
	JOINT RightUpLeg_virtual
	{
		OFFSET 0.000000 0.000000 0.000000
		CHANNELS 3 Xrotation Yrotation Zrotation
		JOINT RightUpLeg
		{
			OFFSET -11.333700 -6.187798 -0.413800
			CHANNELS 3 Xrotation Yrotation Zrotation
			JOINT RightLeg
			{
				OFFSET -0.430392 -32.302628 3.733000
				CHANNELS 3 Xrotation Yrotation Zrotation
				JOINT RightFoot
				{
					OFFSET 0.430392 -48.264973 -6.423500
					CHANNELS 3 Xrotation Yrotation Zrotation
					JOINT RightToeBase
					{
						OFFSET -4.230900 -16.068199 23.438400
						CHANNELS 3 Xrotation Yrotation Zrotation
						JOINT RightToe_End
						{
							OFFSET -4.510700 0.695400 19.974600
							CHANNELS 3 Xrotation Yrotation Zrotation
							End Site
							{
								OFFSET 0 0 0
							}
						}
					}
				}
			}
		}
	}
	JOINT Spine_virtual
	{
		OFFSET 0.000000 0.000000 0.000000
		CHANNELS 3 Xrotation Yrotation Zrotation
		JOINT Spine
		{
			OFFSET -0.002400 12.777504 0.315300
			CHANNELS 3 Xrotation Yrotation Zrotation
			JOINT Spine1
			{
				OFFSET -0.002067 5.816869 0.032633
				CHANNELS 3 Xrotation Yrotation Zrotation
				JOINT Spine1_split
				{
					OFFSET -0.002067 5.816869 0.032633
					CHANNELS 3 Xrotation Yrotation Zrotation
					JOINT Spine2
					{
						OFFSET -0.002067 5.816869 0.032633
						CHANNELS 3 Xrotation Yrotation Zrotation
						JOINT Neck_virtual
						{
							OFFSET 0.000000 0.000000 0.000000
							CHANNELS 3 Xrotation Yrotation Zrotation
							JOINT Neck
							{
								OFFSET -0.003700 21.199493 -0.826900
								CHANNELS 3 Xrotation Yrotation Zrotation
								JOINT Head
								{
									OFFSET 0.000000 20.442200 4.834800
									CHANNELS 3 Xrotation Yrotation Zrotation
									JOINT HeadTop_End
									{
										OFFSET 0.000000 34.668396 4.968400
										CHANNELS 3 Xrotation Yrotation Zrotation
										End Site
										{
											OFFSET 0 0 0
										}
									}
								}
							}
						}
						JOINT LeftShoulder_virtual
						{
							OFFSET 0.000000 0.000000 0.000000
							CHANNELS 3 Xrotation Yrotation Zrotation
							JOINT LeftShoulder
							{
								OFFSET 3.288150 8.794197 -1.372250
								CHANNELS 3 Xrotation Yrotation Zrotation
								JOINT LeftShoulder_split
								{
									OFFSET 3.288150 8.794197 -1.372250
									CHANNELS 3 Xrotation Yrotation Zrotation
									JOINT LeftArm
									{
										OFFSET 11.953299 -2.279007 -0.146200
										CHANNELS 3 Xrotation Yrotation Zrotation
										JOINT LeftForeArm
										{
											OFFSET 18.448900 0.000000 0.000000
											CHANNELS 3 Xrotation Yrotation Zrotation
											JOINT LeftHand
											{
												OFFSET 29.527798 0.000000 0.000000
												CHANNELS 3 Xrotation Yrotation Zrotation
												End Site
												{
													OFFSET 0 0 0
												}
											}
										}
									}
								}
							}
						}
						JOINT RightShoulder_virtual
						{
							OFFSET 0.000000 0.000000 0.000000
							CHANNELS 3 Xrotation Yrotation Zrotation
							JOINT RightShoulder
							{
								OFFSET -3.249400 8.794197 -1.372250
								CHANNELS 3 Xrotation Yrotation Zrotation
								JOINT RightShoulder_split
								{
									OFFSET -3.249400 8.794197 -1.372250
									CHANNELS 3 Xrotation Yrotation Zrotation
									JOINT RightArm
									{
										OFFSET -11.953299 -2.279007 -0.146200
										CHANNELS 3 Xrotation Yrotation Zrotation
										JOINT RightForeArm
										{
											OFFSET -18.448900 0.000000 0.000000
											CHANNELS 3 Xrotation Yrotation Zrotation
											JOINT RightHand
											{
												OFFSET -29.527802 0.000000 0.000000
												CHANNELS 3 Xrotation Yrotation Zrotation
												End Site
												{
													OFFSET 0 0 0
												}
											}
										}
									}
								}
							}
						}
					}
				}
			}
		}
	}
}
MOTION
Frames: 10
Frame Time: 0.03333333
-2.665000 100.633018 -6.288870 0.000000 0.000000 0.000000 -5.438593 -11.401300 -8.812942 -26.130968 26.647392 23.735894 21.759958 0.820936 -0.953368 -5.374091 0.572401 -8.553092 1.626568 -2.661818 1.229356 0.000000 0.000000 0.000000 -5.476051 -8.312469 -8.448575 -14.876698 -2.902937 -8.714141 14.888687 -13.807968 0.050271 5.972080 3.412214 11.855875 -12.278297 4.981749 -10.000244 0.000000 0.000000 0.000000 -9.304663 -7.192061 -9.195748 15.553577 13.857896 -4.598079 -7.464276 -1.005532 -4.527256 0.132280 -0.594729 0.232325 0.000000 0.000000 0.000000 -16.271179 4.668310 -3.567519 7.924404 45.502645 -20.727117 -70.331742 2.999360 -118.504492 0.000000 0.000000 0.000000 -22.665961 1.209797 -4.118642 3.197435 -9.323303 -13.827145 10.175595 -4.412236 -6.075579 -19.432783 -8.952519 -60.175039 4.454596 16.356619 5.889651 0.000000 0.000000 0.000000 -30.403771 0.213786 -0.406529 14.139963 -10.663845 39.885624 -4.920437 -13.870126 -12.133228 -10.797435 65.923169 93.222213 -84.472699 -50.230140 -55.819441 0.000000 0.000000 0.000000 
-2.550499 100.473610 -6.400797 0.000000 0.000000 0.000000 -5.492872 -11.347776 -8.727340 -26.431823 26.263274 23.784252 22.018155 0.777915 -1.005801 -4.954391 0.473198 -8.771364 1.644884 -2.624855 1.281279 0.000000 0.000000 0.000000 -5.454560 -8.062466 -8.414990 -14.987650 -2.934474 -8.605238 15.045421 -13.885039 0.072223 6.426726 3.157215 11.895560 -12.249552 5.053074 -9.929982 0.000000 0.000000 0.000000 -9.336169 -7.247914 -9.129366 15.650542 13.827020 -4.755969 -7.478086 -1.011594 -4.610415 0.166677 -0.558689 0.213870 0.000000 0.000000 0.000000 -16.396369 4.637190 -3.535342 7.524159 45.478354 -20.426181 -70.293056 2.760126 -118.577575 0.000000 0.000000 0.000000 -22.833312 1.242349 -4.128104 3.119006 -8.831365 -14.067144 10.116715 -4.836115 -5.932152 -19.431851 -9.143198 -59.908764 4.408715 16.406241 5.772595 0.000000 0.000000 0.000000 -30.488540 0.228424 -0.420932 14.020393 -10.839311 39.790039 -4.095584 -12.401975 -11.774567 -11.120237 65.777003 93.974981 -84.095482 -50.027208 -55.306583 0.000000 0.000000 0.000000 
-2.400711 100.294968 -6.517183 0.000000 0.000000 0.000000 -5.480931 -11.496911 -8.770087 -27.144381 25.944318 24.019429 22.646418 0.905101 -1.025694 -4.694812 0.439526 -8.503855 1.495623 -2.526437 1.089217 0.000000 0.000000 0.000000 -5.434272 -7.874453 -8.449870 -15.128627 -3.099996 -8.326361 15.184009 -13.956663 0.059212 6.999186 2.565075 11.842331 -12.505304 5.120895 -9.631058 0.000000 0.000000 0.000000 -9.445124 -7.232176 -9.147689 15.665604 13.749973 -5.001328 -7.450953 -0.985518 -4.661836 0.146350 -0.540508 0.195225 0.000000 0.000000 0.000000 -16.494685 4.621668 -3.475791 7.145355 45.373824 -20.042910 -70.367279 2.443698 -118.180332 0.000000 0.000000 0.000000 -22.922993 1.295678 -4.090214 3.094196 -8.495853 -14.148512 10.189439 -5.393560 -5.975501 -19.370181 -9.299171 -59.265326 4.486149 16.232604 5.539600 0.000000 0.000000 0.000000 -30.495565 0.269693 -0.418465 13.737135 -11.282141 39.695646 -3.143732 -11.055748 -11.373722 -11.474173 65.784653 94.693859 -83.662509 -49.863612 -54.736566 0.000000 0.000000 0.000000 
-2.243214 100.207474 -6.731934 0.000000 0.000000 0.000000 -5.344868 -11.875788 -8.938498 -28.173832 25.737799 24.323574 23.559167 1.122184 -1.006693 -4.567637 0.425878 -7.950606 1.344385 -2.366424 0.650301 0.000000 0.000000 0.000000 -5.339692 -7.722290 -8.532740 -15.171773 -3.310111 -7.866081 14.911102 -13.998002 -0.118472 7.247377 1.628792 11.458518 -12.514564 5.162167 -9.197311 0.000000 0.000000 0.000000 -9.445452 -7.246145 -9.220598 15.515849 13.672574 -5.308450 -7.385530 -0.916113 -4.659497 0.073646 -0.502407 0.190146 0.000000 0.000000 0.000000 -16.528127 4.637444 -3.392988 6.768266 45.174898 -19.584674 -70.558108 2.068919 -117.320944 0.000000 0.000000 0.000000 -22.912421 1.383042 -4.003465 3.115107 -8.377323 -14.161009 10.364324 -6.071221 -6.064305 -19.315444 -9.526358 -58.373228 4.683477 15.862495 5.174495 0.000000 0.000000 0.000000 -30.403863 0.350472 -0.392367 13.320161 -11.939722 39.594928 -2.264695 -10.274969 -10.852963 -11.693665 65.866130 95.123696 -83.194955 -49.813065 -54.153011 0.000000 0.000000 0.000000 
-2.020118 100.267212 -7.075201 0.000000 0.000000 0.000000 -5.014301 -12.347998 -9.172241 -29.334150 25.650186 24.561487 24.555464 1.301695 -0.924258 -4.412183 0.343283 -7.404893 1.234429 -2.164203 0.062424 0.000000 0.000000 0.000000 -5.122401 -7.605371 -8.642449 -15.241328 -3.457715 -7.318908 14.236146 -13.929746 -0.474705 7.267227 0.566628 10.703580 -11.948272 5.205519 -8.793336 0.000000 0.000000 0.000000 -9.219993 -7.338365 -9.281614 15.189757 13.635861 -5.662700 -7.292776 -0.801527 -4.605360 0.032306 -0.438570 0.188475 0.000000 0.000000 0.000000 -16.468682 4.688655 -3.289081 6.342977 44.880289 -19.044475 -70.842770 1.689631 -116.030762 0.000000 0.000000 0.000000 -22.811058 1.509898 -3.883593 3.161720 -8.457218 -14.195922 10.549068 -6.663149 -6.011217 -19.286680 -9.963902 -57.348140 4.999027 15.303804 4.669272 0.000000 0.000000 0.000000 -30.196280 0.477580 -0.342490 12.802601 -12.723574 39.469751 -1.491758 -10.121329 -10.101245 -11.494245 65.926994 94.956411 -82.689228 -49.952944 -53.583930 0.000000 0.000000 0.000000 
-1.670567 100.468109 -7.553701 0.000000 0.000000 0.000000 -4.484260 -12.723061 -9.389610 -30.461254 25.747665 24.615744 25.444606 1.381233 -0.787616 -4.162660 0.165662 -7.059960 1.090453 -1.956469 -0.506778 0.000000 0.000000 0.000000 -4.829147 -7.684143 -8.791809 -15.563158 -3.522762 -6.868790 13.476410 -13.673751 -0.876393 7.765292 -0.324406 9.948553 -11.239437 5.320128 -8.633030 0.000000 0.000000 0.000000 -8.777156 -7.518352 -9.325525 14.776827 13.661844 -6.052850 -7.184021 -0.648821 -4.518747 0.039456 -0.345070 0.187206 0.000000 0.000000 0.000000 -16.306228 4.768056 -3.159487 5.854635 44.513733 -18.418935 -71.202878 1.340014 -114.378177 0.000000 0.000000 0.000000 -22.644912 1.663531 -3.753254 3.216765 -8.623232 -14.321788 10.605045 -6.934860 -5.872335 -19.261972 -10.718859 -56.286175 5.392501 14.557490 4.021763 0.000000 0.000000 0.000000 -29.860955 0.650828 -0.282992 12.199706 -13.501156 39.295267 -0.885101 -10.166204 -9.218028 -10.720100 65.885248 94.030142 -82.122834 -50.356458 -53.028469 0.000000 0.000000 0.000000 
-1.180377 100.769424 -8.038614 0.000000 0.000000 0.000000 -3.820742 -12.905275 -9.510204 -31.353010 26.125552 24.445107 26.021255 1.417309 -0.605600 -3.888256 -0.029668 -6.935173 0.807285 -1.776933 -0.902746 0.000000 0.000000 0.000000 -4.526648 -8.054787 -8.958489 -16.391102 -3.485398 -6.595242 12.827969 -13.060438 -1.237039 9.063976 -0.781354 9.744361 -11.127441 5.546314 -8.916575 0.000000 0.000000 0.000000 -8.262477 -7.886842 -9.334661 14.472397 13.714298 -6.513309 -7.082716 -0.473185 -4.397458 0.059697 -0.264279 0.172997 0.000000 0.000000 0.000000 -16.046681 4.850711 -3.011432 5.253049 44.107763 -17.696774 -71.610900 1.036256 -112.462582 0.000000 0.000000 0.000000 -22.438350 1.825798 -3.627064 3.272718 -8.717610 -14.508913 10.454626 -6.940489 -5.790188 -19.180739 -11.816687 -55.274170 5.798205 13.655107 3.237649 0.000000 0.000000 0.000000 -29.419681 0.847284 -0.212781 11.534411 -14.154209 39.069365 -0.551980 -10.198752 -8.184050 -9.463121 65.692459 92.460483 -81.457847 -51.032807 -52.429932 0.000000 0.000000 0.000000 
-0.519750 101.026085 -8.604712 0.000000 0.000000 0.000000 -3.188755 -13.017044 -9.499431 -31.966207 26.808494 24.138734 26.246409 1.488947 -0.407517 -3.590172 -0.134774 -7.009534 0.543148 -1.636379 -1.106344 0.000000 0.000000 0.000000 -4.191568 -8.842852 -9.104011 -17.796266 -3.308145 -6.544966 12.452857 -12.046644 -1.536050 10.832123 -0.694860 10.042110 -11.558092 5.864444 -9.713770 0.000000 0.000000 0.000000 -7.786356 -8.560238 -9.272386 14.460557 13.749158 -7.132471 -7.026685 -0.300875 -4.253274 0.071946 -0.200407 0.155045 0.000000 0.000000 0.000000 -15.733008 4.916022 -2.858446 4.497794 43.716950 -16.879136 -72.004401 0.810091 -110.382674 0.000000 0.000000 0.000000 -22.221911 1.980769 -3.507864 3.335632 -8.607229 -14.661991 10.319183 -6.769563 -5.745010 -18.945768 -13.172915 -54.316526 6.123412 12.577499 2.348443 0.000000 0.000000 0.000000 -28.925247 1.034388 -0.137124 10.835920 -14.625619 38.812796 -0.507122 -10.179240 -7.164063 -7.829360 65.385886 90.431022 -80.646099 -51.938609 -51.697982 0.000000 0.000000 0.000000 
0.266285 101.105408 -9.265619 0.000000 0.000000 0.000000 -2.770114 -13.461073 -9.360545 -32.375821 27.765054 23.862447 26.322084 1.646309 -0.253049 -3.229865 -0.112566 -7.278525 0.409319 -1.541438 -1.096111 0.000000 0.000000 0.000000 -3.844132 -10.005402 -9.158346 -19.613643 -3.037364 -6.689791 12.545796 -10.906703 -1.737633 12.435719 -0.322041 10.199881 -11.286660 6.145624 -10.930364 0.000000 0.000000 0.000000 -7.410070 -9.618703 -9.150792 14.848228 13.706468 -7.952557 -7.008035 -0.147149 -4.088289 0.069718 -0.140164 0.151950 0.000000 0.000000 0.000000 -15.414463 4.948896 -2.711902 3.579013 43.393155 -15.973470 -72.319962 0.676722 -108.192205 0.000000 0.000000 0.000000 -21.979841 2.106306 -3.386129 3.421411 -8.173607 -14.690844 10.221621 -6.508138 -5.707933 -18.510627 -14.709883 -53.343173 6.293713 11.387834 1.394371 0.000000 0.000000 0.000000 -28.409002 1.188978 -0.068357 10.119523 -14.866033 38.545896 -0.799502 -10.126004 -6.357106 -5.996959 64.998081 88.186703 -79.626625 -52.989007 -50.727036 0.000000 0.000000 0.000000 
1.077064 100.975502 -9.886641 0.000000 0.000000 0.000000 -2.643265 -14.403303 -9.095748 -32.588824 28.884621 23.668089 26.414619 1.869152 -0.155809 -2.829007 -0.029569 -7.714565 0.223413 -1.497810 -0.781177 0.000000 0.000000 0.000000 -3.563458 -11.494466 -9.025768 -21.843041 -2.764483 -7.013139 13.068831 -9.786370 -1.834879 13.688200 0.178167 10.022314 -9.742009 6.268818 -12.414037 0.000000 0.000000 0.000000 -7.200707 -11.063173 -9.007191 15.611847 13.505748 -8.927221 -7.011016 -0.028115 -3.902061 0.072365 -0.111038 0.149160 0.000000 0.000000 0.000000 -15.119139 4.948006 -2.578479 2.490919 43.168069 -14.994087 -72.520298 0.605747 -105.918783 0.000000 0.000000 0.000000 -21.676758 2.183439 -3.260093 3.559908 -7.355736 -14.546727 10.076648 -6.245253 -5.649215 -17.833532 -16.307591 -52.290224 6.314612 10.096037 0.424840 0.000000 0.000000 0.000000 -27.890869 1.296758 -0.002013 9.404737 -14.903826 38.269372 -1.241943 -9.992233 -5.718490 -4.177984 64.537351 85.914743 -78.300483 -54.073593 -49.398346 0.000000 0.000000 0.000000 
